# xmcd
#
# Track frame offsets: 
#        150
#        18170
#        39448
#        61320
#        83425
#        98273
#        109528
#
# Disc length: 1743 seconds
#
# Revision: 0
# Processed by: cddbd v1.5.2PL0 Copyright (c) Steve Scherf et al.
# Submitted via: ExactAudioCopyFreeDBPlugin 1.0
#
DISCID=3b06cd07
DTITLE=Taffy - Darkle
DYEAR=2015
DGENRE=Club AC30
TTITLE0=Suicidal Bunny
TTITLE1=Redamancy
TTITLE2=Young Tines
TTITLE3=Remember To Remember
TTITLE4=Dr K
TTITLE5=HBD
TTITLE6=Young Tines (The Brian Jonestown Massacre remix)
EXTD=
EXTT0=
EXTT1=
EXTT2=
EXTT3=
EXTT4=
EXTT5=
EXTT6=
PLAYORDER=
